<svg xmlns="http://www.w3.org/2000/svg" width="1600" height="900" viewBox="0 0 1600 900" preserveAspectRatio="xMidYMid slice"><rect width="1600" height="900" fill="#DCEDEE"/><g fill="none" stroke="#0D2A2E" stroke-opacity="0.34" stroke-width="1.6" stroke-linecap="round" stroke-linejoin="round"><rect x="60" y="120" width="84" height="38" rx="3"/><rect x="152" y="120" width="84" height="38" rx="3"/><rect x="244" y="120" width="84" height="38" rx="3"/><rect x="336" y="120" width="84" height="38" rx="3"/><rect x="428" y="120" width="84" height="38" rx="3"/><rect x="520" y="120" width="84" height="38" rx="3"/><rect x="612" y="120" width="84" height="38" rx="3"/><rect x="704" y="120" width="84" height="38" rx="3"/><rect x="106" y="166" width="84" height="38" rx="3"/><rect x="198" y="166" width="84" height="38" rx="3"/><rect x="290" y="166" width="84" height="38" rx="3"/><rect x="382" y="166" width="84" height="38" rx="3"/><rect x="474" y="166" width="84" height="38" rx="3"/><rect x="566" y="166" width="84" height="38" rx="3"/><rect x="658" y="166" width="84" height="38" rx="3"/><rect x="60" y="212" width="84" height="38" rx="3"/><rect x="152" y="212" width="84" height="38" rx="3"/><rect x="244" y="212" width="84" height="38" rx="3"/><rect x="336" y="212" width="84" height="38" rx="3"/><rect x="428" y="212" width="84" height="38" rx="3"/><rect x="520" y="212" width="84" height="38" rx="3"/><rect x="612" y="212" width="84" height="38" rx="3"/><rect x="704" y="212" width="84" height="38" rx="3"/><rect x="106" y="258" width="84" height="38" rx="3"/><rect x="198" y="258" width="84" height="38" rx="3"/><rect x="290" y="258" width="84" height="38" rx="3"/><rect x="382" y="258" width="84" height="38" rx="3"/><rect x="474" y="258" width="84" height="38" rx="3"/><rect x="566" y="258" width="84" height="38" rx="3"/><rect x="658" y="258" width="84" height="38" rx="3"/><rect x="60" y="304" width="84" height="38" rx="3"/><rect x="152" y="304" width="84" height="38" rx="3"/><rect x="244" y="304" width="84" height="38" rx="3"/><rect x="336" y="304" width="84" height="38" rx="3"/><rect x="428" y="304" width="84" height="38" rx="3"/><rect x="520" y="304" width="84" height="38" rx="3"/><rect x="612" y="304" width="84" height="38" rx="3"/><rect x="704" y="304" width="84" height="38" rx="3"/><rect x="106" y="350" width="84" height="38" rx="3"/><rect x="198" y="350" width="84" height="38" rx="3"/><rect x="290" y="350" width="84" height="38" rx="3"/><rect x="382" y="350" width="84" height="38" rx="3"/><rect x="474" y="350" width="84" height="38" rx="3"/><rect x="566" y="350" width="84" height="38" rx="3"/><rect x="658" y="350" width="84" height="38" rx="3"/></g><g fill="none" stroke="#0D2A2E" stroke-opacity="0.52" stroke-width="2.4" stroke-linecap="round" stroke-linejoin="round"><path d="M 250,40 L 250,150"/><path d="M 208,210 A 42,42 0 0 1 292,210 L 292,214 L 208,214 Z"/><circle cx="250" cy="228" r="6"/><path d="M 420,40 L 420,150"/><path d="M 378,210 A 42,42 0 0 1 462,210 L 462,214 L 378,214 Z"/><circle cx="420" cy="228" r="6"/></g><g fill="none" stroke="#0D2A2E" stroke-opacity="0.72" stroke-width="3.0" stroke-linecap="round" stroke-linejoin="round"><path d="M 40,470 L 830,470"/><path d="M 40,470 L 40,500 L 830,500 L 830,470"/></g><g fill="none" stroke="#0D2A2E" stroke-opacity="0.52" stroke-width="2.6" stroke-linecap="round" stroke-linejoin="round"><path d="M 300,500 L 300,585 Q 300,600 315,600 L 545,600 Q 560,600 560,585 L 560,500"/><path d="M 322,600 L 330,618 L 530,618 L 538,600"/></g><g fill="none" stroke="#0D2A2E" stroke-opacity="0.34" stroke-width="2.2" stroke-linecap="round" stroke-linejoin="round"><path d="M 418,600 L 418,640 M 442,600 L 442,640 M 418,640 Q 430,652 442,640"/></g><g fill="none" stroke="#02ADB4" stroke-opacity="0.95" stroke-width="4.4" stroke-linecap="round" stroke-linejoin="round"><path d="M 430,470 L 430,455"/><path d="M 430,455 Q 430,300 520,300 Q 610,300 610,380 L 610,402"/><path d="M 596,402 L 624,402 L 624,418 L 596,418 Z"/><path d="M 604,418 L 604,430 M 616,418 L 616,430"/><path d="M 410,470 L 450,470 L 450,455 L 410,455 Z"/><path d="M 388,470 L 388,452 Q 388,444 396,444 L 404,444"/><circle cx="382" cy="452" r="7"/></g><g fill="none" stroke="#02ADB4" stroke-opacity="0.85" stroke-width="3.0" stroke-linecap="round" stroke-linejoin="round"><path d="M 610,452 q -5,9 0,14 q 5,-5 0,-14 Z"/><path d="M 610,492 q -4,8 0,12 q 4,-4 0,-12 Z"/></g><g fill="none" stroke="#0D2A2E" stroke-opacity="0.52" stroke-width="2.4" stroke-linecap="round" stroke-linejoin="round"><circle cx="1180" cy="215" r="95"/><circle cx="1180" cy="215" r="84"/></g><g fill="none" stroke="#0D2A2E" stroke-opacity="0.34" stroke-width="2.2" stroke-linecap="round" stroke-linejoin="round"><path d="M 1035,190 L 1035,240 M 1023,190 L 1047,190"/><path d="M 1325,190 L 1325,240 M 1313,190 L 1337,190"/></g><g fill="none" stroke="#0D2A2E" stroke-opacity="0.52" stroke-width="2.4" stroke-linecap="round" stroke-linejoin="round"><path d="M 980,470 L 1400,470 L 1400,500 L 980,500"/><path d="M 1000,500 L 1000,660 M 1380,500 L 1380,660"/><path d="M 1000,575 L 1380,575"/><circle cx="1180" cy="540" r="5"/><circle cx="1180" cy="618" r="5"/></g><g fill="none" stroke="#0D2A2E" stroke-opacity="0.52" stroke-width="2.6" stroke-linecap="round" stroke-linejoin="round"><path d="M 1105,470 L 1105,448 Q 1105,436 1120,436 L 1240,436 Q 1255,436 1255,448 L 1255,470"/></g><g fill="none" stroke="#02ADB4" stroke-opacity="0.95" stroke-width="4.2" stroke-linecap="round" stroke-linejoin="round"><path d="M 1285,470 L 1285,380 Q 1285,368 1273,368 L 1215,368"/><path d="M 1215,360 L 1215,376"/><path d="M 1273,352 L 1295,368"/></g><g fill="none" stroke="#0D2A2E" stroke-opacity="0.52" stroke-width="2.4" stroke-linecap="round" stroke-linejoin="round"><path d="M 1470,340 L 1470,470 L 1512,470 L 1512,340 Q 1512,330 1502,330 L 1480,330 Q 1470,330 1470,340 Z"/><path d="M 1408,470 Q 1400,470 1400,480 L 1400,502 Q 1400,514 1412,514 L 1500,514 L 1512,470 Z"/><path d="M 1424,514 L 1424,560 Q 1424,588 1452,588 L 1476,588 Q 1500,588 1500,560 L 1500,514"/><path d="M 1478,352 L 1502,352"/></g><g fill="none" stroke="#0D2A2E" stroke-opacity="0.34" stroke-width="2.0" stroke-linecap="round" stroke-linejoin="round"><path d="M 960,660 L 1560,660"/></g><g fill="none" stroke="#0D2A2E" stroke-opacity="0.34" stroke-width="1.6" stroke-linecap="round" stroke-linejoin="round"><path d="M 1036.0,720.0 L 1010.0,735.0 L 984.0,720.0 L 984.0,690.0 L 1010.0,675.0 L 1036.0,690.0 Z"/><path d="M 1084.0,776.0 L 1058.0,791.0 L 1032.0,776.0 L 1032.0,746.0 L 1058.0,731.0 L 1084.0,746.0 Z"/><path d="M 1132.0,720.0 L 1106.0,735.0 L 1080.0,720.0 L 1080.0,690.0 L 1106.0,675.0 L 1132.0,690.0 Z"/><path d="M 1180.0,776.0 L 1154.0,791.0 L 1128.0,776.0 L 1128.0,746.0 L 1154.0,731.0 L 1180.0,746.0 Z"/><path d="M 1228.0,720.0 L 1202.0,735.0 L 1176.0,720.0 L 1176.0,690.0 L 1202.0,675.0 L 1228.0,690.0 Z"/><path d="M 1276.0,776.0 L 1250.0,791.0 L 1224.0,776.0 L 1224.0,746.0 L 1250.0,731.0 L 1276.0,746.0 Z"/><path d="M 1324.0,720.0 L 1298.0,735.0 L 1272.0,720.0 L 1272.0,690.0 L 1298.0,675.0 L 1324.0,690.0 Z"/><path d="M 1372.0,776.0 L 1346.0,791.0 L 1320.0,776.0 L 1320.0,746.0 L 1346.0,731.0 L 1372.0,746.0 Z"/><path d="M 1420.0,720.0 L 1394.0,735.0 L 1368.0,720.0 L 1368.0,690.0 L 1394.0,675.0 L 1420.0,690.0 Z"/><path d="M 1468.0,776.0 L 1442.0,791.0 L 1416.0,776.0 L 1416.0,746.0 L 1442.0,731.0 L 1468.0,746.0 Z"/><path d="M 1516.0,720.0 L 1490.0,735.0 L 1464.0,720.0 L 1464.0,690.0 L 1490.0,675.0 L 1516.0,690.0 Z"/><path d="M 1564.0,776.0 L 1538.0,791.0 L 1512.0,776.0 L 1512.0,746.0 L 1538.0,731.0 L 1564.0,746.0 Z"/></g><g fill="none" stroke="#0D2A2E" stroke-opacity="0.34" stroke-width="2.0" stroke-linecap="round" stroke-linejoin="round"><path d="M 60,500 L 60,700 M 300,500 L 300,700 M 560,500 L 560,700 M 830,500 L 830,700"/><path d="M 60,700 L 830,700"/><path d="M 150,590 L 210,590 M 400,650 L 460,650 M 660,590 L 720,590"/></g><g fill="none" stroke="#02ADB4" stroke-opacity="0.45" stroke-width="3.4" stroke-linecap="round" stroke-linejoin="round"><path d="M 800,780 q -26,44 0,66 q 26,-22 0,-66 Z"/></g></svg>